<svg xmlns="http://www.w3.org/2000/svg" xmlns:xlink="http://www.w3.org/1999/xlink" x="0px" y="0px" viewBox="0 0 364.6 158.7" style="enable-background:new 0 0 364.6 158.7;" xml:space="preserve">
<style type="text/css">
	.st0{fill:#69B546;}
	.st1{fill:#BB1254;}
</style>
<g id="Ebene_2">
	<path class="st0" d="M124.9,55.9v1.5h-4.4v4.2h3.9V63h-3.9V68h-2.2v-12H124.9z"></path>
	<path class="st0" d="M134.1,68l-0.9-3.1H129l-0.9,3.1h-2l3.9-12h2.6l3.8,12H134.1z M130.7,54.2c0,0.5-0.4,0.9-1.1,0.9   s-1.1-0.4-1.1-0.9c0-0.5,0.4-0.9,1.1-0.9S130.7,53.7,130.7,54.2z M129.4,63.5h3.4l-1.6-5.6L129.4,63.5z M134.1,54.2   c0,0.5-0.4,0.9-1.1,0.9s-1.1-0.4-1.1-0.9c0-0.5,0.4-0.9,1.1-0.9S134.1,53.7,134.1,54.2z"></path>
	<path class="st0" d="M141.3,55.9V61h4.7v-5.1h2.2v12h-2.2v-5.5h-4.7V68h-2.2v-12H141.3z"></path>
	<path class="st0" d="M154.2,63V68H152v-12h3.7c0.9,0,2.1,0,3.1,0.6c0.9,0.5,1.4,1.4,1.4,2.9c0,1.9-0.9,2.9-2.3,3.4l2.8,5.2h-2.4   l-2.5-4.9H154.2z M154.2,61.6h1.6c0.3,0,1,0,1.4-0.3c0.5-0.3,0.8-0.9,0.8-1.9c0-1-0.3-1.6-0.8-1.8c-0.5-0.3-1.1-0.3-1.5-0.3h-1.5   V61.6z"></path>
	<path class="st0" d="M166,55.9V61h4.7v-5.1h2.2v12h-2.2v-5.5H166V68h-2.2v-12H166z"></path>
	<path class="st0" d="M183.5,68l-0.9-3.1h-4.2l-0.9,3.1h-2l3.9-12h2.6l3.8,12H183.5z M178.8,63.5h3.4l-1.6-5.6L178.8,63.5z"></path>
	<path class="st0" d="M190.4,55.9v8.6c0,1.3,0.4,2.3,2.3,2.3c1.9,0,2.3-1,2.3-2.3v-8.6h2v8.3c0,1,0,2-0.9,2.8   c-0.8,0.8-2,1.1-3.5,1.1c-1.7,0-2.8-0.4-3.5-1.1c-0.8-0.8-0.9-1.9-0.9-2.8v-8.3H190.4z"></path>
	<path class="st0" d="M207,57.5h-0.1c0,0-1.2-0.3-2.3-0.3c-1.3,0-2,0.5-2,1.5c0,1.4,1.4,1.9,2.7,2.7c1.2,0.8,2.2,1.6,2.2,3.3   c0,2.3-1.8,3.3-4.5,3.3c-1.6,0-2.7-0.4-2.7-0.4v-1.5h0.1c0,0,1.3,0.4,2.5,0.4c1.4,0,2.2-0.6,2.2-1.7c0-1.5-1.5-2.1-2.9-3   c-1.1-0.7-2-1.5-2-3.1c0-2,1.5-3.1,4.2-3.1c1.4,0,2.5,0.3,2.5,0.3V57.5z"></path>
	<path class="st1" d="M54,107.8c5.6-0.2,12.6-0.7,20.9-4.8C87.8,96.6,89.9,91,91,87.1c0.2-0.6,1-0.7,0.9,0   c-0.2,2.3-1.2,11.6-15.2,18.1c-8.8,4-15.4,4.3-19.9,4.6c1.2,1,2.9,3.1,6.4,8.2c4.5,6.6,7.5,14.6,14.6,17.1c7.1,2.5,11,0.4,12.9-1   c0.3-0.3,0.7,0.1,0.4,0.4c-1.7,1.9-7,4.1-14.1,2.5c-7.7-1.7-11.4-8.4-16.9-17.2c-4.3-6.8-6.5-8.8-7.5-9.5c-0.3-0.1-0.5-0.1-0.7-0.1   c-1.6,1.7-3,3.4-4.1,5c-5.6,7.2-8.4,13-8.4,15.3c0,0.4-0.3,0.5-0.7,0.3c-0.6-0.3-1.9-1.1-2.3-1.8c-0.2-0.3-0.1-0.9-0.1-1.1   c0.5-1.9,2.7-7,8-13.9c5.1-6.6,11.5-13.4,16.7-18.4c3.4-3.2,8.3-7.4-1.3-7.8c-7.9-0.3-21.8,2.3-28.6,10.4   c-5.6,6.7-4.5,14.2,0.6,17.4c0.2,0.1,0.3,0.3,0.2,0.4c-0.2,0.1-0.4,0.1-0.6,0c-8-3.2-9.4-12.9-2.9-20c8.6-9.4,22.1-10.2,32.4-9.2   c1.3,0.1,6.9,0.5,8,3.9c0.6,1.8-1.2,3.2-4.7,6.7C60.7,100.8,58.5,102.8,54,107.8z"></path>
	<path class="st1" d="M79.5,129c3.6-0.9,11.4-7,11.8-7.8c0.1-0.1,0.3-0.2,0.3,0.1c0,0.1-0.1,1.2-0.6,1.7c-0.8,0.9-9.6,7.8-13.9,8   c-3,0.1-3.6-2.5-2-5.2c1.7-2.9,5.8-6.9,8.3-10.2c1-1.4,2.1-2.9,1.6-3.6c-0.2-0.3,0.3-0.3,0.4-0.2c1.4,1.1,2.6,2.6,1.5,4.2   c-1.8,2.8-6.7,7.4-8.8,10.7C76.5,129.1,78.7,129.2,79.5,129z M92.2,103.4c0-0.3,0.2-0.3,0.4-0.1c0.6,0.5,2.2,1.9,1.7,2.7   c-0.2,0.4-0.7,1.5-1.7,2.1c-0.6,0.3-1.6-0.7-2-1.5C90.3,105.9,92.2,104.9,92.2,103.4z"></path>
	<path class="st1" d="M91.5,125.5c-1.5,1.7-3.1,3.7-3.3,4.8c-0.1,0.5-0.2,0.5-0.6,0.3c-0.5-0.3-1.4-1.3-1.8-1.9   c-0.2-0.3-0.2-0.6,0-0.8c4.9-7.2,12.6-14.3,11.8-16c-0.2-0.4,0.3-0.4,0.6-0.2c0.2,0.2,2.5,1.9,1.5,3.6c-0.7,1.3-3.1,4-4.4,5.4   c-0.2,0.3,0,0.4,0.3,0.1c1.1-0.7,3.5-2.6,6.1-4.3c3.6-2.4,5.2-3.4,7.2-4.2c2.4-0.9,6.5-1,6,1.9c-0.4,2.5-3.4,4-4.2,4.4   c-0.2,0.1-0.5-0.1-0.3-0.3c0.8-1.2,1.5-2.3,1.4-3.8c-0.1-1.4-2.8-0.9-4.6,0C102.6,116.8,92.9,123.8,91.5,125.5z"></path>
	<path class="st1" d="M118.3,129.4c5.2-0.7,7.1-6.2,2.3-8.3c-2.8-1.3-4.2-2-4.2-4c0-2.8,3.6-4.4,7.4-5.2c4.1-0.8,9.1-0.1,8.9,2.4   c-0.2,2.1-2.4,3.1-4.3,3.2c0,0-0.4,0,0-0.5c0.5-0.6,0.9-1.3,1.2-1.9c0.8-2.3-2.7-3-5.5-2.3c-2.6,0.7-4.1,1.9-4.1,3.7   c0.1,1.3,2.7,2.3,4.1,3c6.3,3.1,0.6,10.3-5.7,11c-4.1,0.5-9-0.1-10.2-4.4c-0.4-1.6,0.3-3.4,2.2-4.3c1.7-0.9,3.2-1.2,3.2-1.2   s0.3-0.1,0.5,0.1c0.2,0.2-0.2,0.4-0.2,0.4c-1.4,0.9-2.2,3.1-2.1,4.6C112.2,128.9,115.9,129.7,118.3,129.4z"></path>
	<path class="st1" d="M146,125.3c0,0-0.5,2.2-1.2,2.7c-2.9,2.3-10.3,4.4-13.3,2c-3.1-2.5-2.9-7.3,1.9-12c5.8-5.7,13.8-7,16.9-5.6   c2.5,1.1,3.5,2.5,3.2,3.6c-0.3,1.3-1.6,2.3-3.2,2.8c-0.3,0.1-0.6-0.1-0.4-0.3c0.9-1.1,2.2-4.2-0.2-4.8c-3.1-0.8-8.9,1.6-13.3,6   c-3.3,3.4-5.1,7.3-3.7,9c2.2,2.7,10.6-1,12.7-3.4C145.6,124.8,146,124.9,146,125.3z"></path>
	<path class="st1" d="M171.4,129c3.6-0.9,11.4-7,11.8-7.8c0.1-0.1,0.3-0.2,0.3,0.1c0,0.1-0.1,1.2-0.6,1.7c-0.8,0.9-9.6,7.8-13.9,8   c-3,0.1-3.6-2.5-2-5.2c2.1-3.6,6.1-8,7-9.7c1.2-2.3-0.1-2.9-1.4-2.7c-2.5,0.5-7.5,3.9-8,4.2c-3.8,2.5-9.4,6.4-11.2,8.4   c-1.7,1.9-3,3.7-3.1,4.5c0,0.3-0.1,0.4-0.4,0.3c-0.5-0.2-1.8-1.5-2.1-2.1c-0.1-0.3,0.1-0.5,0.2-0.7c0.6-1.1,6.1-8,12.8-15.7   c8-9.5,18.5-21.8,24.2-24.9c2.1-1.1,6.4,0,6.6,0.1c0.2,0.1,0.3,0.5-0.2,0.5c-0.2,0-0.7,0-1.5,0.2c-5.8,1.7-16.1,13.8-25,24.2   c-2.2,2.5-5.8,6.5-7.8,8.9c-0.2,0.2-0.1,0.3,0.2,0.1c1-0.7,4-2.8,6.7-4.6c3.8-2.5,6.5-3.8,8.6-4.4c3.7-0.9,6.2,1.2,4.6,4.2   c-1.4,2.7-6.2,8.1-7.5,10.3C168.6,129.2,170.6,129.2,171.4,129z"></path>
	<path class="st1" d="M182.7,128.8c2.7,3,11.4-1.7,13-3.8c0.2-0.2,0.5-0.3,0.5,0c0,0-0.3,2.3-0.9,2.7c-2.9,2.4-11.2,4.8-14.3,1.6   c-2.7-2.7-1.7-7.5,3.1-11.9c6.1-5.7,14.7-6.5,17.7-4.6c2.7,1.7,0.8,5.4-2.8,7.3c-3.4,1.8-8,1.6-10.4,0.6c-0.4-0.1-0.2-0.5,0.2-0.5   c1.7,0.4,5.7-0.5,8.5-2.1c2.7-1.5,5-3.7,3.6-4.6c-2-1.3-9.4,1.5-14,5.9C184.4,121.7,180.7,126.6,182.7,128.8z"></path>
	<path class="st1" d="M221.6,129c3.6-0.9,11.4-7,11.8-7.8c0.1-0.1,0.3-0.2,0.3,0.1c0,0.1-0.1,1.2-0.6,1.7c-0.8,0.9-9.6,7.8-13.9,8   c-3,0.1-3.6-2.5-2-5.2c1.8-3.2,6-8.1,7-9.7c1-1.7,0.7-2.9-1.2-2.7c-2.2,0.3-5.5,2.3-7.8,3.8c-4.1,2.7-10.2,7.3-11.3,8.6   c-1.5,1.7-3.1,3.5-3.2,4.6c-0.1,0.5-0.2,0.5-0.6,0.3c-0.5-0.3-1.5-1.3-1.9-1.9c-0.2-0.3-0.2-0.6,0-0.8c4.9-7.2,12.6-14.3,11.8-16   c-0.2-0.4,0.2-0.4,0.4-0.2c0.2,0.2,2.7,2.2,1.7,3.8c-0.8,1.3-3.1,4-4.4,5.5c-0.2,0.3-0.1,0.4,0.2,0.2c1.1-0.7,4-3,6.7-4.7   c3.7-2.4,6.5-3.6,8.6-4.2c3.6-0.9,6.7,0.1,4.6,4c-1.6,2.8-5.8,7.2-7.6,10.4C218.7,129.2,220.8,129.2,221.6,129z"></path>
	<path class="st1" d="M230.1,130.7c-0.7-0.4-1.6-1.1-2-1.8c-0.2-0.3-0.2-0.5-0.1-0.7c0.7-1.6,6.3-8.2,13-16   c8.3-9.6,18.5-21.9,24.2-25.1c2.1-1.2,6.2-0.1,6.5,0c0.3,0.1,0.3,0.5,0,0.5c-0.2,0-0.7,0-1.5,0.2c-6,1.7-16.2,13.9-25.2,24.4   c-6.8,7.9-14.5,16.3-14.5,18.1C230.5,130.7,230.3,130.8,230.1,130.7z"></path>
	<path class="st1" d="M272.7,121.2c0.1-0.1,0.3-0.2,0.3,0.1c0,0.1-0.1,1.2-0.6,1.7c-0.8,0.9-9.6,7.8-13.9,8c-3,0.1-3.6-2.5-2-5.2   c0.8-1.5,1.3-2.2,2.7-4.4c0.2-0.3-0.1-0.3-0.3-0.1c-7.7,6.1-12.7,9.9-16.6,9.5c-0.7-0.1-1.5-0.7-1.8-2.3c-0.6-2.9,1.4-8.7,7.8-12.7   c5-3.2,9.1-4.2,14.6-3.7c2,0.2,4.4,1.5,4.6,1.9c0.1,0.2-0.2,0.4-0.4,0.3c-3.7-2.5-11.2-0.7-16.4,3.2c-2.6,2-6,5.6-6.5,8.6   c-1.1,5.6,5.9,0.6,7.5-0.5c3.3-2.3,6-4.7,7.6-6.2c2.4-2.2,4-4,4.1-4.4c0.2-0.3,0.5-0.3,0.7-0.1c1.4,1.7,2,2.3,1.7,2.7   c-2.6,3.4-4.8,6.7-6.1,9.1c-1.4,2.6,0.6,2.6,1.4,2.4C264.4,128.1,272.3,122.1,272.7,121.2z"></path>
	<path class="st1" d="M289.6,129c3.6-0.9,11.4-7,11.8-7.8c0.1-0.1,0.3-0.2,0.3,0.1c0,0.1-0.1,1.2-0.6,1.7c-0.8,0.9-9.6,7.8-13.9,8   c-3,0.1-3.6-2.5-2-5.2c1.8-3.2,6.1-8.1,7-9.7c1-1.7,0.7-2.9-1.2-2.7c-2.2,0.3-5.5,2.3-7.8,3.8c-4.1,2.7-10.2,7.3-11.3,8.6   c-1.5,1.7-3.1,3.5-3.2,4.6c-0.1,0.5-0.2,0.5-0.6,0.3c-0.5-0.3-1.5-1.3-1.9-1.9c-0.2-0.3-0.2-0.6,0-0.8c4.9-7.2,12.6-14.3,11.8-16   c-0.2-0.4,0.2-0.4,0.4-0.2s2.7,2.2,1.7,3.8c-0.8,1.3-3.2,4-4.4,5.5c-0.3,0.3-0.1,0.4,0.2,0.2c1.1-0.7,4-3,6.7-4.7   c3.7-2.4,6.5-3.6,8.6-4.2c3.6-0.9,6.7,0.1,4.6,4c-1.6,2.8-5.8,7.2-7.6,10.4C286.7,129.2,288.8,129.2,289.6,129z"></path>
	<path class="st1" d="M317,121.3c0.3-0.3,0.1-0.5-0.3-0.1c-0.9,0.7-4.2,3.2-6.9,5c-3.7,2.5-7.6,4.6-9.4,4.6   c-1.9,0.1-3.3-1.1-3.3-3.1c0-7.2,8.6-15.6,19.1-15.6c1.2,0,3.4,0.3,4.5,1.1c0.3,0.2,0.2,0.5-0.2,0.4c-0.8-0.3-2.8-0.3-4.1-0.1   c-6.9,1.1-14,7.2-15.2,12.7c-1.4,6.1,7.2-0.4,8.1-1c6.5-4.6,10.8-8.7,14.7-13.1c8.1-9.3,18.8-21.9,24.4-24.9c2.1-1.1,5.8,0,6,0.1   c0.4,0.1,0.4,0.5,0,0.5c-0.2,0-0.7,0-1.4,0.2c-5.2,1.5-16.2,14.1-24.9,24.3c-4.4,5.2-8.4,9.7-11.3,14.6c-1.5,2.5,0.6,2.5,1.4,2.3   c3.6-0.9,11.4-7,11.8-7.8c0.1-0.1,0.3-0.2,0.3,0.1c0,0.1-0.1,1.2-0.6,1.7c-0.8,0.9-9.6,7.8-13.9,8c-3,0.1-3.6-2.5-2-5.2   C314.7,124.2,316,122.5,317,121.3z"></path>
	<path class="st1" d="M121.8,71.3v0.5h-2.8v3.5h2.4v0.5h-2.4v3.9h3V80h-3.5v-8.8H121.8z"></path>
	<path class="st1" d="M123.2,73.8l1.5,5.5l1.6-5.5h0.6L125,80h-0.6l-1.9-6.2H123.2z"></path>
	<path class="st1" d="M131.3,79.9c0,0-0.5,0.2-1.3,0.2c-0.9,0-1.4-0.3-1.7-0.8c-0.4-0.5-0.5-1.4-0.5-2.4c0-2,0.6-3.2,2-3.2   c0.7,0,1.2,0.3,1.5,0.9c0.3,0.6,0.3,1.4,0.3,2.5h-3.2c0,1.9,0.5,2.6,1.6,2.6c0.7,0,1.2-0.3,1.2-0.3h0.1V79.9z M130.9,76.5   c0-1.4-0.3-2.4-1.2-2.4c-1,0-1.3,1.2-1.4,2.4H130.9z"></path>
	<path class="st1" d="M133.4,73.8l0.2,0.9c0.1-0.7,0.6-1,1.4-1c0.7,0,1.2,0.3,1.4,0.7c0.3,0.4,0.3,0.9,0.3,1.6V80h-0.6v-4.1   c0-0.5,0-0.9-0.2-1.2c-0.2-0.3-0.5-0.5-1-0.5c-1.2,0-1.3,1-1.3,1.5V80H133v-6.2H133.4z"></path>
	<path class="st1" d="M140.8,80c0,0-0.3,0.1-0.8,0.1c-0.6,0-1-0.2-1.1-0.5c-0.2-0.3-0.2-0.7-0.2-1.4v-3.8h-1v-0.5h1v-1.8l0.6-0.2v2   h1.5v0.5h-1.5v3.8c0,0.5,0,0.8,0.1,1c0.1,0.2,0.3,0.4,0.7,0.4c0.3,0,0.7-0.1,0.7-0.1h0.1V80z"></path>
	<path class="st1" d="M144.6,74.4L144.6,74.4c-0.1,0-0.6-0.2-1.1-0.2c-0.6,0-1,0.3-1,1c0,0.7,0.5,0.9,1.2,1.4c0.7,0.5,1.1,1,1.1,1.8   c0,1.2-0.8,1.7-1.8,1.7c-0.7,0-1.1-0.2-1.1-0.2v-0.5h0.1c0,0,0.5,0.3,1.1,0.3c0.7,0,1.1-0.4,1.1-1.1c0-0.9-0.5-1.2-1.2-1.6   c-0.6-0.4-1.1-0.8-1.1-1.7c0-0.9,0.6-1.5,1.7-1.5c0.6,0,1,0.2,1,0.2V74.4z"></path>
	<path class="st1" d="M149.4,71.3v3.9h3.5v-3.9h0.6V80h-0.6v-4.3h-3.5V80h-0.6v-8.8H149.4z"></path>
	<path class="st1" d="M158.6,79.4c-0.3,0.4-0.9,0.7-1.6,0.7c-0.6,0-1.2-0.2-1.5-0.7c-0.4-0.5-0.5-1.3-0.5-2.5c0-1.3,0.1-2,0.5-2.5   c0.3-0.4,0.9-0.7,1.6-0.7c0.6,0,1.2,0.2,1.5,0.7c0.4,0.5,0.5,1.3,0.5,2.5C159.1,78.2,159,78.9,158.6,79.4z M158.1,79.2   c0.3-0.4,0.4-1.1,0.4-2.2s-0.1-1.8-0.4-2.2c-0.2-0.3-0.6-0.5-1.1-0.5c-0.5,0-0.9,0.2-1.1,0.5c-0.3,0.4-0.4,1.1-0.4,2.2   s0.1,1.8,0.4,2.2c0.2,0.3,0.6,0.5,1.1,0.5C157.5,79.7,157.9,79.5,158.1,79.2z"></path>
	<path class="st1" d="M163,80c0,0-0.3,0.1-0.8,0.1c-0.6,0-1-0.2-1.1-0.5c-0.2-0.3-0.2-0.7-0.2-1.4v-3.8h-1v-0.5h1v-1.8l0.6-0.2v2   h1.5v0.5h-1.5v3.8c0,0.5,0,0.8,0.1,1c0.1,0.2,0.3,0.4,0.7,0.4c0.3,0,0.7-0.1,0.7-0.1h0.1V80z"></path>
	<path class="st1" d="M167.4,79.9c0,0-0.5,0.2-1.3,0.2c-0.9,0-1.4-0.3-1.7-0.8c-0.4-0.5-0.5-1.4-0.5-2.4c0-2,0.6-3.2,2-3.2   c0.7,0,1.2,0.3,1.5,0.9c0.3,0.6,0.3,1.4,0.3,2.5h-3.2c0,1.9,0.5,2.6,1.6,2.6c0.7,0,1.2-0.3,1.2-0.3h0.1V79.9z M167,76.5   c0-1.4-0.3-2.4-1.2-2.4c-1,0-1.3,1.2-1.4,2.4H167z"></path>
	<path class="st1" d="M169.7,71v9h-0.6v-9H169.7z"></path>
	<path class="st1" d="M177.8,79.9c0,0-0.6,0.2-1.3,0.2c-2.2,0-2.8-1.9-2.8-4.4c0-2.6,0.6-4.5,2.8-4.5c0.7,0,1.3,0.2,1.3,0.2v0.5   h-0.1c0,0-0.6-0.2-1.2-0.2c-1.7,0-2.2,1.4-2.2,4c0,2.5,0.5,4,2.2,4c0.7,0,1.2-0.2,1.2-0.2h0.1V79.9z"></path>
	<path class="st1" d="M179,74c0,0,0.6-0.2,1.4-0.2c0.6,0,1.2,0.2,1.5,0.6c0.2,0.4,0.2,0.9,0.2,1.5v3c0,0.3,0,0.7,0.5,0.7   c0.1,0,0.3,0,0.3,0V80c0,0-0.2,0.1-0.4,0.1c-0.6,0-0.9-0.3-0.9-1c-0.2,0.6-0.7,1-1.4,1c-0.9,0-1.5-0.6-1.5-1.7   c0-1.2,0.7-1.9,2.4-1.9c0.3,0,0.5,0,0.5,0c0-1,0-1.5-0.2-1.8c-0.2-0.3-0.5-0.5-1.1-0.5c-0.7,0-1.2,0.3-1.2,0.3H179V74z M180.3,79.6   c0.4,0,0.9-0.2,1.1-0.7c0.2-0.5,0.2-1.1,0.2-1.5v-0.5h-0.4c-1,0-2,0.2-2,1.4C179.2,79.1,179.6,79.6,180.3,79.6z"></path>
	<path class="st1" d="M186.5,80c0,0-0.3,0.1-0.8,0.1c-0.6,0-1-0.2-1.1-0.5c-0.2-0.3-0.2-0.7-0.2-1.4v-3.8h-1v-0.5h1v-1.8l0.6-0.2v2   h1.5v0.5h-1.5v3.8c0,0.5,0,0.8,0.1,1c0.1,0.2,0.3,0.4,0.7,0.4c0.3,0,0.7-0.1,0.7-0.1h0.1V80z"></path>
	<path class="st1" d="M190.9,79.9c0,0-0.5,0.2-1.3,0.2c-0.9,0-1.4-0.3-1.7-0.8c-0.4-0.5-0.5-1.4-0.5-2.4c0-2,0.6-3.2,2-3.2   c0.7,0,1.2,0.3,1.5,0.9c0.3,0.6,0.3,1.4,0.3,2.5H188c0,1.9,0.5,2.6,1.6,2.6c0.7,0,1.2-0.3,1.2-0.3h0.1V79.9z M190.5,76.5   c0-1.4-0.3-2.4-1.2-2.4c-1,0-1.3,1.2-1.4,2.4H190.5z"></path>
	<path class="st1" d="M194.8,74.3c0,0-0.2,0-0.4,0c-1.2,0-1.2,0.9-1.2,1.5V80h-0.6v-6.2h0.4l0.1,0.9c0.2-0.8,0.8-1,1.5-1h0.2V74.3z"></path>
	<path class="st1" d="M196.6,72c0,0.2-0.1,0.4-0.4,0.4c-0.3,0-0.4-0.2-0.4-0.4c0-0.2,0.1-0.4,0.4-0.4   C196.5,71.6,196.6,71.8,196.6,72z M196.5,73.8V80h-0.6v-6.2H196.5z"></path>
	<path class="st1" d="M198.7,73.8l0.2,0.9c0.1-0.7,0.6-1,1.4-1c0.7,0,1.2,0.3,1.4,0.7c0.3,0.4,0.3,0.9,0.3,1.6V80h-0.6v-4.1   c0-0.5,0-0.9-0.2-1.2c-0.2-0.3-0.5-0.5-1-0.5c-1.2,0-1.3,1-1.3,1.5V80h-0.6v-6.2H198.7z"></path>
	<path class="st1" d="M205.2,77.6c-0.3,0-0.5,0-0.7-0.1c-0.1,0.1-0.5,0.3-0.5,0.8c0,0.6,0.5,0.6,0.9,0.6h0.8c0.3,0,0.7,0,1.1,0.2   c0.4,0.2,0.7,0.6,0.7,1.3c0,1.2-0.9,1.9-2.4,1.9c-1.4,0-2-0.6-2-1.6c0-1.1,0.9-1.4,1-1.4c-0.1,0-0.6-0.2-0.6-0.9c0-0.7,0.6-1,0.8-1   c-0.5-0.3-0.8-0.9-0.8-1.8c0-1.2,0.5-2,1.7-2c0.5,0,0.8,0.1,1.1,0.4c0.2-0.5,0.7-0.5,1-0.5h0.1v0.6c0,0-0.2,0-0.4,0   c-0.4,0-0.5,0.1-0.5,0.2c0.3,0.3,0.4,0.8,0.4,1.4C206.9,76.9,206.4,77.6,205.2,77.6z M204.3,79.5c0,0-0.6,0.3-0.6,1.2   c0,0.7,0.4,1.2,1.4,1.2c1.1,0,1.8-0.6,1.8-1.4c0-0.6-0.3-0.9-0.6-1c-0.2-0.1-0.5-0.1-0.6-0.1H204.3z M206.4,75.7   c0-1-0.4-1.5-1.1-1.5c-0.8,0-1.1,0.5-1.1,1.5c0,1,0.3,1.5,1.1,1.5C206,77.2,206.4,76.7,206.4,75.7z"></path>
</g>
<g id="Ebene_3">
	<path class="st0" d="M338.9,142.4c0,0,0,0.1,0,0.1c0,0-0.1,0.1,0,0c-103.6,0-207.2,0-310.9,0c0-7.3,0-14.5,0-21.8c-1.1,0-2,0-3,0   c0,8.3,0,16.6,0,24.9c105.8,0,211.4,0,317.1,0c0-12.7,0-25.4,0-38.1c-1,0-2,0-3,0C338.9,119.2,338.9,130.8,338.9,142.4z"></path>
	<path class="st0" d="M24.9,85.7c1.1,0,2.2,0,3.2,0c0-8.7,0-17.4,0-26.1c-1.4,0-2.7,0-4.1,0c0,0-0.1,0-0.1-0.1c0,0,0-0.1,0,0   c13.2-13.3,26.4-26.6,39.6-39.9l40,40c-1.4,0-2.8,0-4.2,0c0,3.6,0,7.7,0,11.5c0,0.1,0,0.2,0,0.2c5.2,0,10.3,0,15.5,0   c0-1.1,0-2.2,0-3.3c-4.1,0-8.3,0-12.4,0v-5c3,0,6,0,9.2,0C95.5,46.7,79.5,30.6,63.6,14.5C47.5,30.7,31.5,46.8,15.5,62.9   c3.1,0,6.2,0,9.4,0C24.9,70.6,24.9,78.1,24.9,85.7z"></path>
	<path class="st0" d="M300.3,67.9c-12.7-12.8-25.4-25.6-38.1-38.4C249.5,42.3,236.8,55.1,224,68c-4.4,0-8.8,0-13.3,0   c0,1.1,0,2.2,0,3.3c5.1,0,10.1,0,15.3,0c12-12.1,24.1-24.3,36.2-36.5l36.6,36.6v0h0l0,0l0,0h0.6v0c13.2,0,26.3,0,39.4,0   c0,4.4,0,8.7,0,13.1c1.1,0,2.2,0,3.3,0c0-5.6,0-11,0-16.5C328.1,67.9,314.1,67.9,300.3,67.9z"></path>
</g>
</svg>